<svg id="Capa_1" enable-background="new 0 0 512 512" height="512" viewBox="0 0 512 512" width="512" xmlns="http://www.w3.org/2000/svg"><g><g><g><path d="m118.63 216.99c-23.5-12.82-47.37-32.14-65.72-53.5-38.009-44.25-57.449-100.16-52.009-149.56l1.539-13.93 14 .58c49.66 2.07 102 29.72 140.01 73.97 17.7 20.62 37.46 59.2 45.83 80.01z" fill="#ffd9b3"/></g><path d="m177.91 172.75-33.48 24.98c-21.39-12.91-54.51-37.2-68.76-53.79-28.83-33.56-45.31-74.37-45.68-111.86 37.01 6.02 74.87 28.46 103.7 62.02 12.73 14.83 33.87 55.7 44.22 78.65z" fill="#805540"/></g><g><g><path d="m393.37 216.99c23.5-12.82 47.37-32.14 65.72-53.5 38.01-44.25 57.45-100.16 52.01-149.56l-1.54-13.93-14 .58c-49.66 2.07-102 29.72-140.01 73.97-17.7 20.62-37.46 59.2-45.83 80.01z" fill="#ffb366"/></g><path d="m334.09 172.75 33.48 24.98c21.39-12.91 54.51-37.2 68.76-53.79 28.83-33.56 45.31-74.37 45.68-111.86-37.01 6.02-74.87 28.46-103.7 62.02-12.73 14.83-33.87 55.7-44.22 78.65z" fill="#804040"/></g><path d="m271 491.77c10.95 12.41 26.98 20.23 44.84 20.23h70.97c24.3 0 46.3-9.85 62.23-25.78 15.92-15.92 25.77-37.92 25.77-62.22 0-32.175-18.553-62.853-47.02-77.86v-52.03c0-93.601-78.117-171.8-171.79-171.8l-39.255 203.158 39.255 126.692h8.872z" fill="#ffd9b3"/><path d="m241 491.77c-10.95 12.41-26.98 20.23-44.84 20.23h-70.97c-24.3 0-46.3-9.85-62.23-25.78-15.92-15.92-25.77-37.92-25.77-62.22 0-32.175 18.553-62.853 47.02-77.86v-52.03c0-93.601 78.117-171.8 171.79-171.8v329.85h-8.872z" fill="#ffeee6"/><g><g><g><path d="m175.011 297.042h30v30h-30z" fill="#173b4d"/></g><g><g><path d="m306.989 297.042h30v30h-30z" fill="#0a2533"/></g></g></g></g><path d="m299.81 401.8-28.81 23.05v66.92c-9.34-10.55-15-24.42-15-39.61l-8.617-21.756 8.617-31.974 25.07-20.06z" fill="#ffb366"/><g><path d="m57.009 257.165h30v153h-30z" fill="#173b4d" transform="matrix(.554 -.833 .833 .554 -245.714 208.887)"/></g><g><path d="m-.933 451.68h137.576v30h-137.576z" fill="#173b4d" transform="matrix(.885 -.466 .466 .885 -209.608 85.355)"/></g><g><g><g><path d="m363.491 318.665h153v30h-153z" fill="#0a2533" transform="matrix(.833 -.554 .554 .833 -111.146 299.423)"/></g><g><path d="m429.145 397.892h30v137.576h-30z" fill="#0a2533" transform="matrix(.466 -.885 .885 .466 -175.717 642.256)"/></g></g></g><path d="m256 398.43v53.73c0 15.19-5.66 29.06-15 39.61v-66.92l-28.81-23.05 18.74-23.43z" fill="#ffd9b3"/></g></svg>