<svg id="Capa_1" enable-background="new 0 0 512 512" height="512" viewBox="0 0 512 512" width="512" xmlns="http://www.w3.org/2000/svg"><g><path d="m494.45 250.56h-238.45l-20.362-77.773 20.362-141.727c12.68-18.74 34.09-31.06 58.38-31.06 39.725 0 72.675 34.742 70.42 74.4 27.469 12.762 44.249 43.848 40.25 73.75 38.017 0 69.329 31.485 69.36 69.54z" fill="#804040"/><path d="m256 31.06v219.5h-220.872c-24.52-44.158-26.35-115.082 30.992-132.22.22-38.84 31.7-70.27 70.5-70.27 16.04 0 30.83 5.38 42.67 14.42 11.85-9.04 26.63-14.42 42.68-14.42 8.54 0 16.72 1.52 24.3 4.31 2.06-7.7 5.38-14.89 9.73-21.32z" fill="#805540"/><g><path d="m159.085 141.106h30v30h-30z" fill="#ffd9b3"/></g><g><path d="m288.787 169.191h30v30h-30z" fill="#ffb366"/></g><g><path d="m313.809 94.128h30v30h-30z" fill="#ffb366"/></g><path d="m256 267.426 256 33.199v211.375h-256l-32.957-110.5z" fill="#0a2533"/><path d="m256 267.426-256 33.199v211.375h256z" fill="#173b4d"/><g><path d="m387.89 406.312c3.16 5.39 4.97 11.64 4.97 18.31 0 20.22-16.6 36.62-37.07 36.62-12.65 0-23.82-6.26-30.51-15.82h-69.28l-19.913-39.27 19.913-34.87h66.81c6.15-11.82 18.6-19.9 32.98-19.9 20.47 0 37.07 16.39 37.07 36.62 0 6.67-1.81 12.92-4.97 18.31z" fill="#ffd9b3"/><path d="m256 371.282v74.14h-69.28c-6.69 9.56-17.85 15.82-30.5 15.82-20.48 0-37.08-16.4-37.08-36.62 0-6.67 1.82-12.92 4.97-18.31-3.15-5.39-4.97-11.64-4.97-18.31 0-20.23 16.6-36.62 37.08-36.62 14.37 0 26.82 8.08 32.98 19.9z" fill="#ffeee6"/></g><path d="m256 300.625h256v-63.891h-256l-25.838 34.042z" fill="#ff4d4d"/><path d="m0 236.734h256v63.89h-256z" fill="#ff884d"/></g></svg>