<svg id="Capa_1" enable-background="new 0 0 512 512" height="512" viewBox="0 0 512 512" width="512" xmlns="http://www.w3.org/2000/svg"><g><g><path d="m335.776 512h-79.776l-91.967-216.148 91.967-207.74h79.776z" fill="#fb3"/><path d="m0 88.112h256v423.888h-256z" fill="#fd3"/></g><path d="m423.888 423.888h-167.888l-91.967-128.036 91.967-295.852h167.888z" fill="#b3f2ff"/><path d="m88.112 0h167.888v423.888h-167.888z" fill="#e6f7ff"/><g><path d="m347.967 295.852h-91.967l-12.277-15 12.277-15h91.967z" fill="#0a2533"/></g><g><path d="m347.967 356.361h-91.967l-12.277-15 12.277-15h91.967z" fill="#0a2533"/></g><path d="m423.89 333.03-29.257 85.119 29.257 76.571 88.11 17.28v-178.97z" fill="#ff4d4d"/><path d="m423.89 333.03v161.69l-88.11 17.28v-178.97z" fill="#ff884d"/><g><g><path d="m423.888 421.138c48.585 0 88.112-39.527 88.112-88.112s-39.527-88.112-88.112-88.112l-35.551 88.112z" fill="#ff884d"/></g><g><path d="m423.888 421.138c-48.585 0-88.112-39.527-88.112-88.112s39.527-88.112 88.112-88.112z" fill="#fb3"/></g><path d="m423.888 274.515-19.839 58.511 19.839 58.511c32.265 0 58.511-26.246 58.511-58.511s-26.246-58.511-58.511-58.511z" fill="#fb3"/><path d="m423.888 274.515v117.022c-32.265 0-58.511-26.246-58.511-58.511s26.246-58.511 58.511-58.511z" fill="#fd3"/></g><g><g><path d="m164.033 265.852h91.967v30h-91.967z" fill="#173b4d"/></g></g><g><g><path d="m164.033 326.361h91.967v30h-91.967z" fill="#173b4d"/></g></g><g><g><g><g><path d="m270.553 91.361h-14.553l-7.277-17.434 7.277-12.566h14.553z" fill="#804040"/></g></g><g><g><g><path d="m175.569 79.749h29.107v30h-29.107z" fill="#805540" transform="matrix(.775 -.632 .632 .775 -17.104 141.45)"/></g><g><g><path d="m306.877 80.195h30v29.107h-30z" fill="#804040" transform="matrix(.632 -.775 .775 .632 45.049 284.35)"/></g></g></g></g><g><g><path d="m241.447 61.361h14.553v30h-14.553z" fill="#805540"/></g></g></g><g><path d="m256 124.31-20.447 47.285 20.447 47.285h20.75c24.92 0 45.13-20.21 45.13-45.13.72-25.61-18.226-49.44-45.13-49.44z" fill="#804040"/><path d="m256 124.31v94.57h-20.75c-24.92 0-45.13-20.21-45.13-45.13-.72-25.61 18.226-49.44 45.13-49.44z" fill="#805540"/></g></g></g></svg>