<svg id="Capa_1" enable-background="new 0 0 512 512" height="512" viewBox="0 0 512 512" width="512" xmlns="http://www.w3.org/2000/svg"><g><path d="m256 0-66.149 171.17 66.149 273.532 121.316 67.298h134.684v-205.178l-19.042-15 19.042-15v-135.492z" fill="#804040"/><path d="m256 0v444.702l-121.371 67.298h-134.629v-205.178l19.043-15-19.043-15v-135.492z" fill="#805540"/><g><path d="m387.89 166.462c3.16 5.39 4.97 11.64 4.97 18.31 0 20.22-16.6 36.62-37.07 36.62-12.65 0-23.82-6.26-30.51-15.82h-69.28l-19.913-39.27 19.913-34.87h66.81c6.15-11.82 18.6-19.9 32.98-19.9 20.47 0 37.07 16.39 37.07 36.62 0 6.67-1.81 12.92-4.97 18.31z" fill="#ffd9b3"/><path d="m256 131.432v74.14h-69.28c-6.69 9.56-17.85 15.82-30.5 15.82-20.48 0-37.08-16.4-37.08-36.62 0-6.67 1.82-12.92 4.97-18.31-3.15-5.39-4.97-11.64-4.97-18.31 0-20.23 16.6-36.62 37.08-36.62 14.37 0 26.82 8.08 32.98 19.9z" fill="#ffeee6"/></g><path d="m256 276.822h256v30h-134.629v205.178h-30l-91.371-205.178-16.106-15.141z" fill="#ffd9b3"/><path d="m256 276.822h-256v30h134.629v205.178h30l91.371-205.178z" fill="#ffeee6"/><path d="m347.37 306.82v78.62l-91.37 59.262-22.234-63.149 22.234-74.733z" fill="#0a2533"/><path d="m164.63 306.82v78.62l91.37 59.262v-137.882z" fill="#173b4d"/><path d="m256 384.08-24.787 64.916 24.787 63.004h91.37v-126.56c-15.72 2.75-31.77 9.55-41.63 19.15-12.88-12.53-30.41-20.3-49.74-20.51z" fill="#ff4d4d"/><path d="m256 384.08v127.92h-91.37v-126.56c15.72 2.75 31.77 9.55 41.63 19.15 12.88-12.53 30.41-20.3 49.74-20.51z" fill="#ff884d"/></g></svg>