<svg id="Capa_1" enable-background="new 0 0 512 512" height="512" viewBox="0 0 512 512" width="512" xmlns="http://www.w3.org/2000/svg"><g><circle cx="256" cy="256" fill="#fddf55" r="256"/><path d="m281.64 157.986-62.471-62.471-50.103 50.103 26.366 26.366-24.793 24.793 50.485 50.485-13.459 13.459-74.253-74.253-50.103 50.103 26.414 26.414-24.793 24.793 93.076 93.076-30.424 30.424 100.592 100.592c2.6.078 5.207.13 7.826.13 141.02 0 255.397-114.027 255.986-254.908l-164.726-164.727z" fill="#fcbe50"/><ellipse cx="194.91" cy="146.152" fill="#fff" rx="45.979" ry="64.911" transform="matrix(.985 -.174 .174 .985 -22.418 36.066)"/><ellipse cx="109.144" cy="237.097" fill="#fff" rx="45.979" ry="64.911" transform="matrix(.985 -.174 .174 .985 -39.513 22.555)"/><ellipse cx="317.09" cy="146.152" fill="#e9edf5" rx="64.911" ry="45.979" transform="matrix(.174 -.985 .985 .174 118.097 433.046)"/><ellipse cx="402.856" cy="237.097" fill="#e9edf5" rx="64.911" ry="45.979" transform="matrix(.174 -.985 .985 .174 99.406 592.661)"/><path d="m256 213.906c-21.983 0-41.365 12.614-52.81 31.799-12.253 20.54-27.615 38.589-46.287 51.523-18.469 12.793-30.725 35.298-30.725 60.925 0 39.833 29.61 72.124 66.136 72.124 6.07 0 11.948-.892 17.53-2.562 15.096-4.517 30.626-6.775 46.156-6.775l23.456-98.848z" fill="#fff"/><path d="m256 213.906c21.983 0 41.365 12.614 52.81 31.799 12.253 20.54 27.615 38.589 46.287 51.523 18.469 12.793 30.725 35.298 30.725 60.925 0 39.833-29.61 72.124-66.136 72.124-6.07 0-11.948-.892-17.53-2.562-15.095-4.517-30.626-6.775-46.156-6.775z" fill="#e9edf5"/></g></svg>